#!OML:ASF H:\Pregnant\Project 1\Capture day 1\Session 1\femalepreg.ASF
:FULLY-SPECIFIED
:DEGREES
1201
root 5.52776 14.457 40.4234 -162.41 237.359 -177.452
lowerback -17.8789 1.51088 -3.00967
upperback -8.01984 2.18224 -0.434277
thorax 1.32065 1.02577 1.64277
lowerneck -19.9364 -5.32672 -2.09854
upperneck 27.1152 -8.30678 3.51262
head 12.5642 -3.52334 0.285566
rclavicle 4.8606e-014 -1.23246e-014
rhumerus -34.8507 26.6784 -96.7805
rradius 44.55
rwrist -26.4768
rhand -12.0596 -20.8824
rfingers 7.12502
rthumb 13.9996 -50.391
lclavicle 4.8606e-014 -1.23246e-014
lhumerus -50.3106 -5.45334 82.1082
lradius 30.539
lwrist 39.205
lhand -32.1712 -13.6501
lfingers 7.12502
lthumb -5.414 16.2608
rfemur -30.8099 36.102 6.51722
rtibia 53.9134
rfoot -25.8963 1.24226
rtoes -19.7624
lfemur -47.7188 -21.2267 -1.96478
ltibia 32.6662
lfoot -10.76 -16.6775
ltoes -25.7521
1202
root 5.53751 14.4707 40.5272 -163.167 237.967 -176.185
lowerback -17.902 1.24877 -3.78496
upperback -8.16306 1.95169 -0.583427
thorax 1.16255 0.925624 1.87888
lowerneck -20.1819 -5.26127 -2.06451
upperneck 27.2071 -8.23502 3.52912
head 12.6482 -3.4795 0.290558
rclavicle -6.9584e-014 1.07592e-014
rhumerus -34.7829 24.4248 -95.3888
rradius 41.2606
rwrist -27.6591
rhand -14.7367 -23.7883
rfingers 7.12502
rthumb 11.4187 -53.4573
lclavicle -6.9584e-014 1.07592e-014
lhumerus -49.2803 -5.79143 81.4522
lradius 29.9867
lwrist 38.3011
lhand -32.1345 -13.6816
lfingers 7.12502
lthumb -5.37856 16.2301
rfemur -32.0562 35.3948 5.24493
rtibia 55.52
rfoot -24.9799 1.92257
rtoes -19.5006
lfemur -47.5273 -21.2949 -3.04949
ltibia 32.2576
lfoot -10.5574 -16.4563
ltoes -25.5045
1203
root 5.54915 14.4837 40.6272 -163.715 238.561 -175.164
lowerback -17.8944 1.03045 -4.4164
upperback -8.30847 1.75183 -0.696123
thorax 0.991683 0.83976 2.07735
lowerneck -20.4795 -5.21212 -2.02431
upperneck 27.3017 -8.17994 3.52173
head 12.7431 -3.44408 0.28147
rclavicle 5.30134e-014 -6.80837e-015
rhumerus -34.7138 21.9572 -93.7664
rradius 38.1908
rwrist -29.066
rhand -17.3027 -26.6017
rfingers 7.12502
rthumb 8.94329 -56.3921
lclavicle 5.30134e-014 -6.80837e-015
lhumerus -48.2252 -6.06791 80.7055
lradius 29.4794
lwrist 37.2943
lhand -32.1242 -13.6718
lfingers 7.12502
lthumb -5.36869 16.2402
rfemur -33.3991 34.6926 4.1429
rtibia 57.1767
rfoot -23.8298 2.53371
rtoes -18.8358
lfemur -47.4135 -21.2969 -3.96036
ltibia 31.9436
lfoot -10.3641 -16.2504
ltoes -25.1144
1204
root 5.56258 14.4969 40.7239 -164.057 239.145 -174.412
lowerback -17.8365 0.851681 -4.90016
upperback -8.44659 1.57626 -0.764045
thorax 0.807401 0.765012 2.24354
lowerneck -20.8033 -5.16927 -1.99726
upperneck 27.3735 -8.12467 3.51001
head 12.8346 -3.40999 0.272743
rclavicle 2.48093e-014 1.14425e-014
rhumerus -34.6486 19.2979 -91.916
rradius 35.2872
rwrist -30.1511
rhand -19.6806 -29.064
rfingers 7.12502
rthumb 6.64814 -58.9397
lclavicle 2.48093e-014 1.14425e-014
lhumerus -47.1595 -6.26359 79.8784
lradius 29.0515
lwrist 36.2395
lhand -32.1977 -13.7216
lfingers 7.12502
lthumb -5.43959 16.1886
rfemur -34.7761 33.9936 3.25063
rtibia 58.8448
rfoot -22.4724 3.04886
rtoes -17.7443
lfemur -47.3419 -21.2256 -4.71932
ltibia 31.7304
lfoot -10.1974 -16.0727
ltoes -24.5907
1205
root 5.57791 14.5098 40.8175 -164.207 239.728 -173.935
lowerback -17.7103 0.709475 -5.2415
upperback -8.57155 1.42166 -0.783557
thorax 0.606045 0.699826 2.38367
lowerneck -21.1292 -5.1295 -1.98999
upperneck 27.3998 -8.06395 3.50495
head 12.9095 -3.37508 0.271448
rclavicle -4.66057e-015 -2.51866e-014
rhumerus -34.615 16.5095 -89.859
rradius 32.5426
rwrist -30.4863
rhand -21.7182 -31.0868
rfingers 7.12502
rthumb 4.68092 -61.015
lclavicle -4.66057e-015 -2.51866e-014
lhumerus -46.0986 -6.3393 78.966
lradius 28.7308
lwrist 35.1729
lhand -32.3741 -13.8941
lfingers 7.12502
lthumb -5.60995 16.0116
rfemur -36.1376 33.3435 2.58688
rtibia 60.4993
rfoot -20.972 3.39152
rtoes -16.3398
lfemur -47.2809 -21.0654 -5.35685
ltibia 31.6234
lfoot -10.0941 -15.9326
ltoes -24.0226
1206
root 5.59519 14.5232 40.9081 -164.204 240.307 -173.705
lowerback -17.5093 0.587942 -5.46762
upperback -8.67001 1.27262 -0.750119
thorax 0.398148 0.63684 2.51551
lowerneck -21.4637 -5.0838 -1.98484
upperneck 27.3741 -7.98449 3.48962
head 12.9637 -3.33393 0.27052
rclavicle -3.21994e-014 -1.80925e-014
rhumerus -34.6205 13.708 -87.6356
rradius 29.9502
rwrist -29.8224
rhand -23.1895 -32.5168
rfingers 7.12502
rthumb 3.26008 -62.4716
lclavicle -3.21994e-014 -1.80925e-014
lhumerus -45.0539 -6.26272 77.9774
lradius 28.5446
lwrist 34.1705
lhand -32.6382 -14.1688
lfingers 7.12502
lthumb -5.86491 15.73
rfemur -37.4331 32.7549 2.15122
rtibia 62.1129
rfoot -19.4034 3.53151
rtoes -14.6243
lfemur -47.1933 -20.8301 -5.90453
ltibia 31.5943
lfoot -10.0482 -15.8305
ltoes -23.4294
1207
root 5.61436 14.5379 40.9959 -164.093 240.887 -173.671
lowerback -17.2462 0.479597 -5.60411
upperback -8.73002 1.12594 -0.676329
thorax 0.202492 0.574014 2.64029
lowerneck -21.8204 -5.03045 -1.95673
upperneck 27.2933 -7.88802 3.45042
head 12.9968 -3.2863 0.260056
rclavicle -2.69524e-014 4.22417e-016
rhumerus -34.6868 11.0256 -85.3095
rradius 27.5492
rwrist -28.1187
rhand -24.123 -33.411
rfingers 7.12502
rthumb 2.3586 -63.3777
lclavicle -2.69524e-014 4.22417e-016
lhumerus -44.0293 -6.04062 76.9202
lradius 28.5203
lwrist 33.3225
lhand -32.9325 -14.4269
lfingers 7.12502
lthumb -6.14903 15.4639
rfemur -38.643 32.2278 1.91513
rtibia 63.6712
rfoot -17.8358 3.4604
rtoes -12.5565
lfemur -47.0532 -20.5257 -6.39749
ltibia 31.6065
lfoot -10.0386 -15.7681
ltoes -22.7365
1208
root 5.6356 14.5555 41.0816 -163.907 241.472 -173.786
lowerback -16.9302 0.373057 -5.67971
upperback -8.75132 0.972155 -0.559653
thorax 0.0234744 0.507065 2.77558
lowerneck -22.1789 -4.95894 -1.92439
upperneck 27.1453 -7.75647 3.40067
head 13.0008 -3.22508 0.25214
rclavicle 1.61645e-014 2.11209e-014
rhumerus -34.8323 8.64511 -82.9573
rradius 25.4026
rwrist -25.5717
rhand -24.5649 -33.8884
rfingers 7.12502
rthumb 1.93182 -63.8594
lclavicle 1.61645e-014 2.11209e-014
lhumerus -43.0514 -5.64584 75.8105
lradius 28.6806
lwrist 32.6895
lhand -33.2184 -14.5945
lfingers 7.12502
lthumb -6.4251 15.288
rfemur -39.7577 31.7499 1.84349
rtibia 65.1587
rfoot -16.3453 3.1544
rtoes -10.3176
lfemur -46.8322 -20.1697 -6.85851
ltibia 31.5998
lfoot -10.0416 -15.7297
ltoes -22.0154
1209
root 5.65888 14.5758 41.1653 -163.689 242.07 -173.982
lowerback -16.5947 0.282927 -5.71059
upperback -8.73159 0.836027 -0.433864
thorax -0.121251 0.447208 2.8994
lowerneck -22.6006 -4.89183 -1.83798
upperneck 26.983 -7.62493 3.27851
head 13.0055 -3.16693 0.206592
rclavicle -1.05988e-013 -2.56184e-014
rhumerus -35.0671 6.70249 -80.7042
rradius 23.5803
rwrist -22.5637
rhand -24.6816 -34.0773
rfingers 7.12502
rthumb 1.81911 -64.0493
lclavicle -1.05988e-013 -2.56184e-014
lhumerus -42.1114 -5.15008 74.6698
lradius 29.0387
lwrist 32.3421
lhand -33.4659 -14.6103
lfingers 7.12502
lthumb -6.66402 15.2649
rfemur -40.8051 31.3173 1.88039
rtibia 66.5794
rfoot -15.0117 2.51081
rtoes -8.34224
lfemur -46.5358 -19.7827 -7.30406
ltibia 31.5344
lfoot -10.0241 -15.6967
ltoes -21.2394
